<svg t="1638342211843" class="icon" viewBox="0 0 1024 1024" version="1.1" xmlns="http://www.w3.org/2000/svg" p-id="5939" width="256" height="256"><path d="M952.32 204.8c0-81.92-67.584-149.504-149.504-149.504H204.8C122.88 55.296 55.296 122.88 55.296 204.8v598.016c0 81.92 67.584 149.504 149.504 149.504h598.016c81.92 0 149.504-67.584 149.504-149.504V204.8z m-73.728 571.392c0 57.344-45.056 102.4-102.4 102.4H231.424c-57.344 0-102.4-45.056-102.4-102.4V231.424c0-57.344 45.056-102.4 102.4-102.4h544.768c57.344 0 102.4 45.056 102.4 102.4v544.768z m-88.064-219.136c-24.576 24.576-63.488 24.576-88.064 0-6.144-6.144-12.288-16.384-14.336-24.576h-98.304c-6.144 16.384-16.384 30.72-30.72 40.96l63.488 110.592c10.24-2.048 20.48-2.048 30.72 0 32.768 8.192 53.248 43.008 45.056 75.776-8.192 32.768-43.008 53.248-75.776 45.056-32.768-8.192-53.248-43.008-45.056-75.776 2.048-10.24 8.192-20.48 16.384-26.624l-65.536-112.64c-8.192 2.048-16.384 4.096-24.576 4.096-18.432 0-34.816-6.144-49.152-14.336L317.44 716.8c4.096 8.192 8.192 18.432 8.192 28.672 0 34.816-28.672 63.488-63.488 63.488-34.816 0-63.488-28.672-63.488-63.488 0-34.816 28.672-63.488 63.488-63.488 10.24 0 20.48 2.048 28.672 8.192L430.08 552.96c-10.24-14.336-14.336-30.72-14.336-49.152 0-18.432 6.144-34.816 14.336-49.152l-104.448-104.448c-10.24 6.144-22.528 10.24-36.864 10.24-38.912 0-71.68-32.768-71.68-71.68s32.768-71.68 71.68-71.68 71.68 32.768 71.68 71.68c0 12.288-4.096 24.576-10.24 36.864l104.448 104.448c14.336-10.24 30.72-14.336 49.152-14.336 10.24 0 18.432 2.048 26.624 4.096l55.296-96.256c-4.096-6.144-8.192-12.288-10.24-20.48-8.192-28.672 10.24-57.344 38.912-65.536 10.24-2.048 20.48-2.048 30.72 0 4.096 0 8.192 0 12.288 2.048 4.096 2.048 6.144 6.144 8.192 8.192 8.192 6.144 12.288 16.384 16.384 26.624 8.192 28.672-10.24 57.344-38.912 65.536-8.192 2.048-16.384 2.048-22.528 0l-55.296 96.256c18.432 14.336 28.672 36.864 30.72 61.44h92.16c2.048-10.24 8.192-20.48 16.384-28.672 24.576-24.576 63.488-24.576 88.064 0 12.288 12.288 18.432 28.672 18.432 45.056v4.096c-4.096 14.336-10.24 28.672-20.48 38.912z" p-id="5940"></path></svg>