<svg t="1638342259110" class="icon" viewBox="0 0 1024 1024" version="1.1" xmlns="http://www.w3.org/2000/svg" p-id="6765" width="256" height="256"><path d="M512.48128 409.67168c-56.25856 0-101.84192 45.58848-101.84192 101.84192 0 36.85888 19.39968 69.83168 51.4048 88.26368 32.00512 18.42688 70.80448 18.42688 101.84192 0 31.03744-18.432 50.44224-52.37248 50.44224-88.26368 0-56.25344-45.58848-101.84192-101.84704-101.84192z m32.01024 156.83584c-19.32288 11.47904-43.47904 11.47904-63.40608 0-19.92704-11.4688-32-32-32-54.95296 0-35.0208 28.38016-63.40608 63.40608-63.40608s63.40608 28.38528 63.40608 63.40608c-0.00512 22.34368-12.0832 43.47904-31.40608 54.95296z" p-id="6766"></path><path d="M829.65504 490.17856v-0.9728h-39.76704c-4.85376-66.92352-32.98304-128.03072-80.512-175.55968-47.52896-47.52896-109.59872-75.65312-175.55968-80.50688V192.4096c0-12.60544-9.7024-22.30272-22.30272-22.30272-12.61056 0-22.31296 9.7024-22.31296 22.30272v40.73472c-65.95072 4.85376-127.05792 32.98304-174.58688 80.50688-46.55104 47.52896-75.65312 109.60384-80.50176 175.55968h-37.83168c-12.61056 0-22.30784 9.7024-22.30784 22.31296 0 12.60032 9.69728 22.30272 22.30784 22.30272h37.83168c4.85376 66.92352 32.9728 128.03072 80.50176 175.55968 47.52896 46.55616 108.63616 75.65312 174.58688 80.512v40.73472c0 12.60544 9.7024 22.2976 22.31296 22.2976 12.60032 0 22.30272-9.69728 22.30272-22.2976v-39.76704c65.96096-4.85376 128.03072-32.97792 175.55968-80.512 46.55616-47.52384 75.65312-109.60384 80.512-175.55968h39.76704c12.60544 0 22.2976-9.7024 22.2976-22.30272 0-12.61568-9.69216-22.31296-22.2976-22.31296z m-139.6736 43.64288h55.28576c-10.67008 111.54432-99.90144 200.78592-211.44576 211.45088v-57.23136c0-12.61056-9.7024-22.30784-22.30272-22.30784-12.61056 0-22.31296 9.7024-22.31296 22.30784v57.23136c-111.5392-10.6752-199.80288-99.90656-211.44064-211.45088h58.19392c12.61056 0 22.30784-9.7024 22.30784-22.30272 0-12.61056-9.69728-22.31296-22.30784-22.31296H277.76512c10.66496-111.5392 99.90144-200.77056 211.44064-211.44064v56.25856c0 12.60544 9.7024 22.30272 22.31296 22.30272 12.60032 0 22.30272-9.69728 22.30272-22.30272V277.76512c111.54432 10.66496 200.78592 99.90144 211.44576 211.44064h-55.28576c-12.60032 0-22.2976 9.7024-22.2976 22.31296-0.00512 12.60032 9.69728 22.30272 22.2976 22.30272z" p-id="6767"></path><path d="M924.70784 121.60512c0 3.87584-0.9728 6.784-2.91328 9.69728 0 1.94048-0.96768 3.88096-2.90816 5.82144l-74.68544 74.68032c-6.784 6.78912-19.39968 1.94048-19.39968-7.7568V142.94016h-312.32c-202.71616 0-367.60064 164.88448-367.60064 367.60064 0 12.60544-9.7024 22.30784-22.31296 22.30784-12.61056 0-22.30784-9.7024-22.30784-22.30784 0-55.28576 10.67008-109.59872 32.01024-161.00864 20.36736-49.46944 50.43712-93.11232 88.26368-130.944 37.82656-37.83168 81.47456-67.8912 130.93888-88.26368 50.44224-19.39968 104.75008-31.03744 161.00864-31.03744h389.9136c11.63776 0.00512 22.31296 10.68032 22.31296 22.31808zM902.39488 490.17856c12.61056 0 22.31296 9.69728 22.31296 22.30784 0 55.28576-10.6752 109.59872-32.01536 161.00864-20.37248 49.46944-50.43712 93.11744-88.25856 130.93888-37.82144 37.83168-81.46432 67.89632-130.93888 88.25856-50.44224 21.34016-104.7552 32.01536-161.00864 32.01536H121.60512c-12.61056 0-22.31296-9.70752-22.31296-22.31296 0-4.85376 1.94048-9.7024 4.84864-13.57312 0.96768-0.9728 0.96768-2.90816 2.91328-3.88096l74.68032-74.68544c6.78912-6.79936 19.39968-1.94048 19.39968 7.76192v62.06976h311.3472c202.71616 0 367.60576-164.8896 367.60576-367.60064 0.01024-12.61056 9.7024-22.30784 22.30784-22.30784z" p-id="6768"></path></svg>